<?xml version="1.0" encoding="UTF-8"?>
<svg width="78px" height="56px" viewBox="0 0 78 56" version="1.1" xmlns="http://www.w3.org/2000/svg" xmlns:xlink="http://www.w3.org/1999/xlink">
    <title>logo</title>
    <defs>
        <polygon id="path-1" points="0 0 33.3097206 0 33.3097206 33.3097206 0 33.3097206"></polygon>
    </defs>
    <g id="Page-1" stroke="none" stroke-width="1" fill="none" fill-rule="evenodd">
        <g id="step-2-alternate-color-copy" transform="translate(-55.000000, -89.000000)">
            <g id="logo" transform="translate(55.000000, 89.000000)">
                <path d="M58.9371998,11.532712 L55.2698233,15.2000884 C54.4397279,16.0301839 54.4397279,17.3760866 55.2698233,18.2061821 L58.9371998,21.8735585 C59.7672952,22.703654 61.1130277,22.703654 61.9431231,21.8735585 L65.6106699,18.2061821 C66.4407654,17.3760866 66.4407654,16.0301839 65.6106699,15.2000884 L61.9431231,11.532712 C61.1130277,10.7026165 59.7672952,10.7026165 58.9371998,11.532712" id="Fill-1" fill="#B32EFF"></path>
                <path d="M41.8687138,35.1781182 L41.8687138,35.1781182 C40.0211831,33.3305875 37.0256489,33.3305875 35.1781182,35.1781182 L35.1781182,35.1781182 C33.3305875,37.0256489 33.3305875,40.0211831 35.1781182,41.8687138 C37.0256489,43.7162445 40.0211831,43.7162445 41.8687138,41.8687138 L41.8687138,41.8687138 C43.7162445,40.0211831 43.7162445,37.0256489 41.8687138,35.1781182" id="Fill-3" fill="#FFFFFF"></path>
                <path d="M20.048433,13.3578375 C18.2009023,11.5103067 15.2053682,11.5103067 13.3578375,13.3578375 L13.3578375,13.3578375 C11.5103067,15.2053682 11.5103067,18.2009023 13.3578375,20.048433 C15.2053682,21.8959637 18.2009023,21.8959637 20.048433,20.048433 L20.048433,20.048433 C21.8959637,18.2009023 21.8959637,15.2053682 20.048433,13.3578375 Z" id="Fill-5" fill="#FFFFFF"></path>
                <path d="M69.4265736,18.6463329 L62.3780895,25.6892152 C61.282516,26.7840879 59.5059058,26.7840879 58.4101623,25.6892152 L54.4045036,21.6865702 L51.3618482,18.6463329 C50.2661048,17.5514603 50.2661048,15.7764318 51.3618482,14.6815592 L58.4101623,7.63867681 C59.5059058,6.54397401 61.2823461,6.54397401 62.3780895,7.63867681 L69.4265736,14.6815592 C70.522317,15.7764318 70.522317,17.5514603 69.4265736,18.6463329 L69.4265736,18.6463329 Z M18.6428502,25.6710438 C17.5471068,26.7657466 15.7706665,26.7657466 14.674923,25.6710438 L7.62660896,18.6281614 C6.53086551,17.5332888 6.53086551,15.7582603 7.62660896,14.6633877 L14.674923,7.62050535 C15.7706665,6.52580256 17.5471068,6.52580256 18.6428502,7.62050535 L25.6913343,14.6633877 C26.7870777,15.7582603 26.7870777,17.5332888 25.6913343,18.6281614 L24.5038115,19.8147405 L18.6428502,25.6710438 Z M75.4090575,12.7283825 L64.3078353,1.67130684 C62.1319849,-0.495851456 58.6110571,-0.493643709 56.4380961,1.67623181 L45.4043487,12.693568 L45.2338771,12.5234017 C41.5244617,8.81693433 35.5103649,8.81693433 31.8009496,12.5234017 L31.6501935,12.6740379 L20.5975804,1.63020878 C18.4224098,-0.543402927 14.8955334,-0.543402927 12.7201929,1.63020878 L1.63137793,12.710211 C-0.543792643,14.8838227 -0.543792643,18.4077264 1.63137793,20.5813381 L12.7201929,31.6613403 C14.8955334,33.8349521 18.4224098,33.8349521 20.5975804,31.6613403 L33.6411255,18.6281614 C33.6882049,18.5812893 33.7303555,18.5313602 33.7731858,18.4821105 L34.025579,18.2300877 L34.025579,18.2300877 C36.4907044,15.7667517 40.487525,15.7667517 42.9528203,18.2300877 L43.9166735,19.1931748 L50.4083628,25.6797049 C50.5018418,25.7731096 50.6019492,25.8558152 50.7047761,25.9332562 L56.4554322,31.6795118 C58.6307727,33.8531235 62.1576491,33.8531235 64.3328197,31.6795118 L75.4153461,20.6057931 C77.5930661,18.4298039 77.5903467,14.9009752 75.4090575,12.7283825 L75.4090575,12.7283825 Z" id="Fill-7" fill="#FFFFFF"></path>
                <g id="Group-11" transform="translate(21.916831, 21.916831)">
                    <mask id="mask-2" fill="white">
                        <use xlink:href="#path-1"></use>
                    </mask>
                    <g id="Clip-10"></g>
                    <path d="M25.6850266,18.6383435 L18.6382731,25.6850754 C17.5429686,26.7805465 15.7667945,26.7805465 14.6713201,25.6850754 L7.62473649,18.6383435 C6.52926206,17.5428724 6.52926206,15.7668737 7.62473649,14.6714026 L14.6713201,7.62467067 C15.7667945,6.52936952 17.5429686,6.52936952 18.6382731,7.62467067 L25.6850266,14.6714026 C26.780501,15.7668737 26.780501,17.5428724 25.6850266,18.6383435 L25.6850266,18.6383435 Z M20.5925233,1.63109984 C18.4178868,-0.543699948 14.8918763,-0.543699948 12.7170698,1.63109984 L1.6309774,12.7171583 C-0.543659132,14.8919581 -0.543659132,18.4179579 1.6309774,20.5925877 L12.7170698,31.6786462 C14.8918763,33.853446 18.4178868,33.853446 20.5925233,31.6786462 L31.6786157,20.5925877 C33.8534222,18.4177879 33.8534222,14.8919581 31.6786157,12.7171583 L20.5925233,1.63109984 Z" id="Fill-9" fill="#FFFFFF" mask="url(#mask-2)"></path>
                </g>
            </g>
        </g>
    </g>
</svg>